<svg height="512pt" viewBox="0 -47 512.00034 512" width="512pt" xmlns="http://www.w3.org/2000/svg"><path d="m84.429688 68.894531c1.214843.734375 2.550781 1.082031 3.871093 1.082031 2.539063 0 5.015625-1.292968 6.425781-3.625l4.242188-7.023437 5.207031 7.445313c2.375 3.394531 7.050781 4.21875 10.445313 1.847656 3.394531-2.375 4.222656-7.050782 1.847656-10.445313l-11.816406-16.890625c-1.453125-2.078125-3.855469-3.277344-6.398438-3.195312-2.535156.085937-4.855468 1.445312-6.167968 3.617187l-10.199219 16.890625c-2.140625 3.546875-1.003907 8.15625 2.542969 10.296875zm0 0"/><path d="m88.207031 121.289062c1.40625 1.324219 3.25 2.046876 5.148438 2.046876.425781 0 .859375-.039063 1.289062-.113282 2.332031-.40625 4.332031-1.890625 5.398438-4l7.804687-15.40625.1875.21875c2.734375 3.113282 7.472656 3.421875 10.585938.6875 3.113281-2.730468 3.421875-7.46875.691406-10.582031l-7.507812-8.554687c-1.644532-1.871094-4.105469-2.808594-6.578126-2.496094-2.472656.3125-4.625 1.832031-5.75 4.054687l-8.28125 16.347657-6.496093-6.132813c-3.015625-2.84375-7.761719-2.703125-10.605469.308594-2.839844 3.015625-2.703125 7.761719.3125 10.601562zm0 0"/><path d="m113.675781 138.90625h-25.933593c-4.140626 0-7.5 3.355469-7.5 7.5v29.433594c0 4.140625 3.359374 7.5 7.5 7.5h25.933593c4.140625 0 7.5-3.359375 7.5-7.5v-29.433594c0-4.144531-3.359375-7.5-7.5-7.5zm-7.5 29.429688h-10.933593v-14.429688h10.933593zm0 0"/><path d="m116.664062 194.972656c-2.109374-1.5-4.839843-1.8125-7.230468-.816406l-20.320313 8.445312c-1.84375.765626-3.308593 2.234376-4.0625 4.082032l-5.613281 13.703125c-1.570312 3.832031.265625 8.214843 4.097656 9.785156.929688.378906 1.894532.558594 2.839844.558594 2.953125 0 5.753906-1.753907 6.941406-4.65625l4.429688-10.820313 6.339844-2.632812-.625 10.148437c-.257813 4.132813 2.890624 7.691407 7.023437 7.945313 4.125.261718 7.691406-2.890625 7.945313-7.023438l1.367187-22.148437c.15625-2.585938-1.027344-5.066407-3.132813-6.570313zm0 0"/><path d="m151.121094 241.589844c-.445313 2.355468.246094 4.882812 2.066406 6.703125 1.464844 1.464843 3.382812 2.195312 5.304688 2.195312 1.917968 0 3.839843-.730469 5.304687-2.195312 2.339844-2.34375 2.363281-3.832031 2.496094-13.519531.070312-4.933594.117187-12.125.144531-21.367188.042969-15.535156.027344-37.117188-.050781-64.140625-.128907-46-.390625-92.46875-.394531-92.933594-.023438-4.128906-3.378907-7.457031-7.5-7.457031-.015626 0-.027344 0-.042969 0-4.140625.023438-7.480469 3.398438-7.457031 7.542969.398437 70.054687.757812 176.246093.128906 185.171875zm0 0"/><path d="m180.601562 253.027344c-.441406 2.355468.246094 4.882812 2.066407 6.703125 1.464843 1.464843 3.386719 2.199219 5.304687 2.199219 1.917969 0 3.839844-.734376 5.304688-2.199219 2.339844-2.34375 2.363281-3.832031 2.496094-13.519531.070312-4.933594.117187-12.121094.144531-21.363282.042969-15.539062.027343-37.117187-.050781-64.144531-.128907-46-.394532-92.46875-.394532-92.929687-.023437-4.128907-3.378906-7.460938-7.5-7.460938-.015625 0-.027344 0-.042968 0-4.140626.023438-7.480469 3.402344-7.457032 7.542969.398438 70.054687.753906 176.246093.128906 185.171875zm0 0"/><path d="m275.269531 84.527344c1.4375 0 2.886719-.410156 4.167969-1.269532 40.273438-26.988281 86.71875-31.234374 118.59375-30.046874 4.160156.167968 7.617188-3.074219 7.773438-7.214844.15625-4.136719-3.078126-7.621094-7.214844-7.773438-34.101563-1.273437-83.886719 3.347656-127.503906 32.574219-3.441407 2.308594-4.359376 6.964844-2.054688 10.40625 1.449219 2.160156 3.820312 3.324219 6.238281 3.324219zm0 0"/><path d="m275.269531 113.78125c1.4375 0 2.886719-.410156 4.167969-1.269531 40.273438-26.992188 86.722656-31.234375 118.59375-30.046875 4.160156.171875 7.617188-3.074219 7.773438-7.214844s-3.078126-7.621094-7.214844-7.773438c-34.09375-1.273437-83.882813 3.34375-127.503906 32.574219-3.441407 2.304688-4.359376 6.964844-2.054688 10.40625 1.449219 2.15625 3.820312 3.324219 6.238281 3.324219zm0 0"/><path d="m275.269531 143.03125c1.4375 0 2.886719-.410156 4.167969-1.269531 40.273438-26.992188 86.722656-31.234375 118.59375-30.046875 4.160156.183594 7.617188-3.078125 7.773438-7.214844.15625-4.140625-3.078126-7.621094-7.214844-7.773438-34.09375-1.273437-83.882813 3.34375-127.503906 32.574219-3.441407 2.304688-4.359376 6.964844-2.054688 10.40625 1.449219 2.160157 3.820312 3.324219 6.238281 3.324219zm0 0"/><path d="m507.261719 65.742188c-3.742188-3.742188-9.089844-5.414063-14.316407-4.480469-3.414062.617187-6.789062 1.347656-10.128906 2.175781v-10.464844c0-17.269531-13.757812-31.378906-30.890625-31.960937v-1.277344c0-7.707031-5.515625-14.222656-13.113281-15.488281-13.054688-2.179688-47.632812-6.769532-86.640625-2.324219-26.222656 2.988281-49.652344 9.371094-70.128906 19.0625h-81.296875c-61.210938-28.972656-132.335938-20.816406-156.738282-16.738281-7.601562 1.265625-13.117187 7.78125-13.117187 15.488281v1.277344c-17.132813.582031-30.890625 14.691406-30.890625 31.960937v334c0 17.640625 14.351562 31.992188 31.992188 31.992188h306.292968c4.140625 0 7.5-3.359375 7.5-7.5 0-4.144532-3.359375-7.5-7.5-7.5h-89.375v-19.902344h201.917969c6.238281 0 12.0625-1.804688 16.988281-4.90625v7.816406c0 9.371094-7.621094 16.992188-16.988281 16.992188h-79.882813c-4.140624 0-7.5 3.355468-7.5 7.5 0 4.140625 3.359376 7.5 7.5 7.5h79.882813c17.640625 0 31.988281-14.351563 31.988281-31.992188v-240.351562c1.464844-1.957032 2.882813-3.945313 4.25-5.960938 12.441406-18.351562 20.742188-38.738281 24.679688-60.605468.933594-5.21875-.742188-10.570313-4.484375-14.3125zm-39.445313-12.769532v14.976563c-5.417968 1.929687-10.71875 4.15625-15.890625 6.675781v-38.585938c8.855469.570313 15.890625 7.9375 15.890625 16.933594zm5.542969 81.128906c-4.796875 6.835938-10.222656 13.308594-16.167969 19.253907-1.96875 1.96875-4.011718 3.855469-6.085937 5.703125v-25.335938c0-.390625-.019531-.773437-.058594-1.15625l9.46875-9.464844c2.929687-2.929687 2.929687-7.679687 0-10.605468-2.929687-2.929688-7.679687-2.929688-10.605469 0l-9.464844 9.460937c-.382812-.035156-.769531-.058593-1.160156-.058593h-25.371094c1.851563-2.078126 3.765626-4.109376 5.738282-6.085938 5.945312-5.945312 12.417968-11.367188 19.25-16.164062h34.457031zm-71.136719 2.796876h23.28125l-42.980468 42.984374c4.117187-15.355468 10.714843-29.757812 19.699218-42.984374zm33.882813 10.609374v23.277344c-13.21875 8.980469-27.621094 15.578125-42.96875 19.695313zm-82.234375-130.679687c37.121094-4.230469 70.039062.136719 82.472656 2.210937.335938.058594.582031.347657.582031.695313v63.226563c-1.539062.96875-3.070312 1.953124-4.582031 2.980468-8.308594 5.632813-16.148438 12.113282-23.296875 19.265625-6.175781 6.175781-11.839844 12.847657-16.828125 19.816407-.1875.261718-.363281.527343-.550781.789062-32.667969-.386719-79.386719 5.136719-120.578125 32.742188-3.441406 2.304687-4.363282 6.964843-2.058594 10.402343 1.449219 2.160157 3.820312 3.328125 6.238281 3.328125 1.4375 0 2.886719-.414062 4.167969-1.269531 34.300781-22.988281 73.097656-29.371094 102.761719-30.140625-2.609375 4.726562-4.980469 9.570312-7.082031 14.523438-39.9375 2.027343-74.933594 12.910156-104.03125 32.40625-3.441407 2.304687-4.359376 6.964843-2.054688 10.40625 1.449219 2.160156 3.820312 3.328124 6.238281 3.328124 1.4375 0 2.886719-.414062 4.167969-1.273437 25.273438-16.9375 55.554688-26.828125 90.101562-29.488281-1.828124 5.980468-3.316406 12.09375-4.441406 18.335937-.46875 2.609375-.28125 5.25.484375 7.707031l-35.542969 35.546876c-2.929687 2.925781-2.929687 7.675781 0 10.605468 1.460938 1.460938 3.382813 2.195313 5.300782 2.195313 1.917968 0 3.839844-.730469 5.304687-2.195313l35.554688-35.554687c1.554687.484375 3.183593.742187 4.832031.742187.953125 0 1.914062-.082031 2.867188-.253906 18.941406-3.414062 36.726562-10.078125 53.023437-19.847656v78.339844c0 .078124 0 .324218-.246094.539062-.242187.207031-.472656.164062-.550781.15625-16.574219-2.585938-49.957031-6.214844-87.34375-1.480469-40.191406 5.085938-73.703125 18.265625-99.875 39.242188v-243.359375c25.746094-24.636719 61.039062-39.664063 104.964844-44.667969zm-307.980469 265.246094c1.03125.042969 2.070313 0 3.109375-.160157 28.484375-4.441406 125.148438-14.289062 184.90625 42.878907v16.230469c0 1.457031-.929688 2.144531-1.484375 2.421874-.570313.289063-1.714844.636719-2.929687-.265624-27.695313-20.609376-62.992188-33.019532-104.90625-36.878907-33.785157-3.113281-63.300782.234375-77.886719 2.511719-.078125.011719-.320313.050781-.5625-.160156-.246094-.207032-.246094-.457032-.246094-.535156zm210.425781-246.089844c-5.238281 3.71875-10.210937 7.722656-14.914062 12.007813-4.804688-4.371094-9.792969-8.367188-14.925782-12.007813zm-241.316406 16.988281c0-8.996094 7.035156-16.363281 15.890625-16.933594v86.84375c0 4.140626 3.359375 7.5 7.5 7.5 4.144531 0 7.5-3.359374 7.5-7.5v-103.148437c0-.347656.246094-.636719.585937-.695313 12.429688-2.074218 45.351563-6.445312 82.472657-2.210937 43.921875 5.003906 79.214843 20.03125 104.960937 44.671875v243.355469c-26.171875-20.976563-59.6875-34.15625-99.875-39.246094-37.386718-4.730469-70.773437-1.101563-87.34375 1.480469-.078125.015625-.3125.050781-.550781-.15625-.25-.210938-.25-.457032-.25-.539063v-110.851562c0-4.140625-3.355469-7.5-7.5-7.5-4.140625 0-7.5 3.359375-7.5 7.5v152.574219c0 4.59375 2.003906 8.941406 5.492187 11.929687 3.484376 2.984375 8.085938 4.289063 12.628907 3.585937 25.035156-3.902343 111.394531-13.164062 171.527343 31.578126 3.152344 2.347656 6.875 3.542968 10.625 3.542968.917969 0 1.832032-.078125 2.746094-.21875v10.527344h-201.917968c-9.371094 0-16.992188-7.621094-16.992188-16.988281zm218.910156 350.992188h-201.917968c-9.371094 0-16.992188-7.625-16.992188-16.992188v-7.816406c4.925781 3.101562 10.75 4.90625 16.992188 4.90625h201.917968zm233.90625-51.894532c0 9.371094-7.621094 16.992188-16.988281 16.992188h-201.917969v-10.527344c.910156.140625 1.828125.21875 2.742188.21875 3.75 0 7.472656-1.195312 10.625-3.542968 17.605468-13.097657 38.945312-22.6875 63.425781-28.503907 4.03125-.957031 6.523437-5 5.566406-9.03125s-5.003906-6.523437-9.03125-5.5625c-26.480469 6.289063-49.664062 16.742188-68.914062 31.066407-1.214844.902343-2.355469.554687-2.929688.265624-.554687-.277343-1.484375-.964843-1.484375-2.421874v-16.230469c59.757813-57.167969 156.421875-47.320313 184.910156-42.878907 1.035157.164063 2.074219.207032 3.105469.160157v26.042969c0 .078124 0 .324218-.242187.535156-.246094.207031-.484375.171875-.5625.15625-15.207032-2.371094-45.9375-5.8125-80.882813-2.214844-4.121093.421875-7.117187 4.105469-6.695312 8.226562.425781 4.121094 4.113281 7.117188 8.230469 6.691407 33.269531-3.417969 62.542968-.140625 77.035156 2.121093.8125.125 1.621094.1875 2.429687.1875 3.714844 0 7.335938-1.320312 10.203125-3.773437 3.488282-2.988281 5.488282-7.335937 5.488282-11.929687v-130.257813c5.550781-4.246094 10.875-8.902344 15.871093-13.898437.007813-.007813.015625-.011719.019531-.019532v188.128906zm29.164063-274.667968c-1.832031 10.183594-4.722657 20.015625-8.621094 29.421875v-10.355469c0-6.519531-5.304687-11.824219-11.824219-11.824219h-10.355468c9.410156-3.898437 19.234374-6.785156 29.417968-8.621093.082032-.015626.164063-.019532.246094-.019532.308594 0 .582031.113282.8125.34375.289062.289063.398438.648438.324219 1.054688zm0 0"/></svg>