<?xml version="1.0" encoding="utf-8"?>
<!-- Generator: Adobe Illustrator 16.0.0, SVG Export Plug-In . SVG Version: 6.00 Build 0)  -->
<!DOCTYPE svg PUBLIC "-//W3C//DTD SVG 1.1//EN" "http://www.w3.org/Graphics/SVG/1.1/DTD/svg11.dtd">
<svg version="1.1" id="Layer_1" xmlns="http://www.w3.org/2000/svg" xmlns:xlink="http://www.w3.org/1999/xlink" x="0px" y="0px"
	 width="1500px" height="700px" viewBox="0 0 1500 700" enable-background="new 0 0 1500 700" xml:space="preserve">
<g>
	<g>
		<g>
			<path d="M1323.925,192.498c-3.055,3.046-3.055,7.999,0,11.045c3.045,3.055,7.998,3.055,11.044,0
				c3.055-3.046,3.055-7.999,0-11.045C1331.923,189.443,1326.97,189.443,1323.925,192.498z"/>
			<path d="M1495.165,32.305c-9.161-9.165-25.448-2.872-30.798-0.806c-11.167,4.314-25.083,12.072-41.361,23.059
				c-32.028,21.616-70.153,53.772-104.605,88.224c-36.587,36.588-83.353,90.209-105.608,125.596
				c-10.215-2.119-20.853,0.871-28.477,8.483c-7.031,7.035-9.994,16.612-8.908,25.797l-43.588,16.618
				c-2.295,0.875-4.047,2.779-4.725,5.139l-26.758,92.99c-0.002,0.016-0.006,0.027-0.012,0.043l-0.01,0.039
				c-0.006,0.02-0.008,0.041-0.015,0.063c-1.642,5.908,3.866,11.352,9.769,9.578l92.984-26.754c2.475-0.711,4.438-2.594,5.252-5.035
				l14.518-43.561c10.059,1.842,20.371-1.221,27.789-8.629c7.52-7.525,10.58-18.322,8.486-28.475
				c35.387-22.26,89.005-69.023,125.587-105.605c34.451-34.454,66.607-72.58,88.223-104.608
				c10.986-16.277,18.747-30.19,23.06-41.357C1498.033,57.75,1504.326,41.463,1495.165,32.305z M1194.784,386.496l-60.038,17.277
				l38.525-38.525c3.052-3.053,3.052-8,0-11.051c-3.049-3.049-7.995-3.049-11.048,0l-38.525,38.525l17.332-60.24l39.614-15.1
				c28.439,28.438-0.684-0.684,27.881,27.881L1194.784,386.496z M1239.567,332.102c-6.1,6.088-15.973,6.119-22.104,0.004
				l-22.101-22.102c-6.091-6.088-6.089-16.004-0.003-22.092c4.813-4.807,11.911-5.779,17.605-3.148
				c4.379,2.035,4.34,3.396,26.596,25.245C1245.761,316.205,1245.544,326.117,1239.567,332.102z M1458.34,98.104
				c-21.036,30.704-51.908,67.123-84.702,99.915c-40.424,40.426-90.941,82.957-121.514,102.572
				c-1.479-1.699-0.346-0.418-23.615-23.733c-0.525-0.529-1.074-1.029-1.633-1.514c19.619-30.573,62.146-81.092,102.572-121.515
				c32.791-32.795,69.211-63.666,99.915-84.702c36.99-25.342,52.163-27.148,54.739-25.763
				C1485.491,45.94,1483.678,61.117,1458.34,98.104z"/>
			<path d="M1401.263,115.157l-55.246,55.246c-3.052,3.052-3.052,7.999,0,11.051c3.048,3.049,7.995,3.049,11.047,0l55.246-55.246
				c3.052-3.052,3.052-7.999,0-11.051C1409.258,112.109,1404.311,112.109,1401.263,115.157z"/>
		</g>
	</g>
</g>
<g>
	<g>
		<g>
			<path d="M1119.273,383.789c-1.902,0-7.158,9.566-15.767,28.686c-8.615,19.126-17.299,34.674-26.058,46.642
				c-8.76,11.976-15.767,18.106-21.021,18.395c-1.752,0-2.628-3.941-2.628-11.825c0-42.625,2.039-79.707,6.131-111.239
				c2.039-8.17,7.008-27.296,14.891-57.372c2.915-11.674,4.38-25.545,4.38-41.605c0-13.72-2.19-20.584-6.569-20.584
				c-4.38,0-9.854,3.066-16.424,9.197c-6.569,6.131-10.729,10.805-12.481,14.014c-3.798,7.301-8.033,39.416-12.7,96.349
				c-11.387-8.17-22.336-12.263-32.847-12.263c-21.61,0-39.053,9.053-52.335,27.153c-10.241,13.954-16.515,29.557-18.862,46.801
				c-8.028,17.229-16.118,31.484-24.271,42.76c-8.759,12.119-15.622,18.325-20.583,18.613c-1.752,0-2.628-4.886-2.628-14.672
				c0-9.778,0.944-23.136,2.847-40.072c1.896-16.93,2.847-26.858,2.847-29.78c0-2.915-0.876-5.693-2.628-8.321
				s-3.798-3.941-6.131-3.941l-24.088,2.628c-2.628,0-4.53-0.438-5.693-1.314c4.085-7.007,6.132-14.015,6.132-21.021
				c0-7.008-2.266-13.357-6.789-19.051c-4.529-5.693-9.491-8.54-14.89-8.54c-5.406,0-9.566,2.627-12.481,7.883
				c-2.922,5.256-4.38,11.387-4.38,18.394c0,7.008,1.752,13.29,5.256,18.832c1.91,3.075,4.249,5.696,6.987,7.896
				c-2.34,1.463-5.76,3.574-10.271,6.337c-4.53,2.778-12.632,6.063-24.307,9.854c-0.294-19.27-5.255-34.886-14.89-46.861
				c-9.635-11.968-20.077-17.956-31.313-17.956c-11.243,0-20.954,2.922-29.124,8.759c-18.106,0-32.921,8.615-44.452,25.839
				c-5.576,8.327-9.789,16.91-12.668,25.746c-8.205,5.9-16.9,8.852-26.088,8.852c-4.092,0-8.321-0.725-12.701-2.189
				c0.876-8.17,1.314-16.054,1.314-23.649c0-28.904-6.72-43.357-20.146-43.357c-9.929,0-17.45,3.873-22.555,11.606
				c-5.112,7.739-7.664,16.937-7.664,27.591c0,10.661,2.915,20.077,8.759,28.248c5.837,8.177,14.158,13.727,24.963,16.642
				c-3.216,15.767-7.739,29.124-13.577,40.072c-5.844,10.949-12.995,16.424-21.459,16.424c-5.844,0-11.167-4.448-15.985-13.357
				c-4.817-8.903-7.814-19.776-8.978-32.628c7.883-22.185,11.825-40.729,11.825-55.619c0-5.543-0.513-9.047-1.533-10.511
				c-1.026-1.458-2.703-2.19-5.036-2.19c-7.302,0-13.577,4.817-18.832,14.452c-5.255,9.636-8.759,19.202-10.511,28.687
				c-1.752,9.491-2.628,18.394-2.628,26.715s0.726,16.136,2.19,23.431c-8.472,14.014-15.623,21.021-21.459,21.021
				c-5.844,0-10.292-5.037-13.358-15.109c-3.065-10.073-4.598-21.747-4.598-35.036c0-13.282,0.876-21.679,2.627-25.183
				c7.589-18.681,11.674-34.885,12.263-48.612c0-5.255-2.19-7.883-6.569-7.883c-2.922,0-8.177,2.34-15.766,7.007
				c-7.596,4.674-11.975,8.033-13.139,10.073c-5.845,10.626-9.028,29.83-9.555,57.611c-7.273,15.155-14.596,27.783-21.973,37.861
				c-8.759,11.976-15.766,18.106-21.021,18.395c-3.503,0-5.255-5.837-5.255-17.519c0-21.897,1.752-54.155,5.255-96.787
				c12.844-2.627,24.813-6.494,35.912-11.605c11.092-5.105,16.492-9.122,16.204-12.043c0-3.209-2.628-4.817-7.883-4.817
				c-1.751,0-7.376,2.189-16.861,6.569c-9.491,4.38-18.175,7.302-26.058,8.759c4.085-45.547,6.131-71.092,6.131-76.642
				c0-11.968-1.902-17.956-5.693-17.956c-4.379,0-8.91,2.484-13.577,7.445c-4.674,4.968-7.445,10.224-8.321,15.766
				c-3.504,21.61-6.569,42.919-9.197,63.941c-4.674-2.333-10.073-3.503-16.204-3.503s-9.197,2.34-9.197,7.007
				c0.876,9.053,8.615,15.041,23.211,17.956c-1.64,16.148-2.945,30.745-3.926,43.846c-0.643,1.391-1.299,2.818-1.984,4.329
				c-8.615,18.982-17.299,34.529-26.058,46.642c-8.759,12.119-15.623,18.325-20.584,18.613c-1.751,0-2.627-3.941-2.627-11.825
				c0-40.873,1.314-64.666,3.941-71.386c2.039-3.791,3.866-9.922,5.475-18.394c1.601-8.465,2.409-14.158,2.409-17.08
				c0-11.093-2.122-16.643-6.351-16.643c-4.236,0-9.347,2.265-15.328,6.789c-5.988,4.53-10.148,8.396-12.481,11.606
				c-11.681-12.263-22.192-18.395-31.533-18.395c-21.61,0-39.053,9.053-52.335,27.153c-11.743,16-18.283,34.109-19.648,54.32
				c-0.406,0.637-0.796,1.232-1.149,1.737c-24.238,35.036-49.488,52.554-75.765,52.554c-22.192,0-39.416-8.39-51.678-25.182
				c-12.263-16.786-18.394-35.98-18.394-57.591c0-31.238,8.903-61.601,26.715-91.094c17.806-29.486,37.732-44.233,59.78-44.233
				c22.042,0,33.065,10.367,33.065,31.094c0,6.72-2.847,13.433-8.54,20.146c-5.693,6.72-8.54,12.701-8.54,17.956
				c0,4.673,4.304,7.007,12.919,7.007c8.608,0,15.985-5.255,22.117-15.766s9.197-21.897,9.197-34.16s-4.379-22.404-13.138-30.438
				c-8.759-8.027-20.002-12.043-33.722-12.043c-36.207,0-67.52,15.547-93.94,46.642C28.207,321.381,15,362.329,15,413.132
				c0,20.146,6.275,39.415,18.832,57.81c6.131,9.053,14.452,16.498,24.963,22.335c10.511,5.838,22.042,8.76,34.598,8.76
				c42.309,0,76.62-17.691,102.956-53.049c1.698,14.883,5.766,26.368,12.22,34.436c8.759,10.949,18.976,16.423,30.656,16.423
				c11.674,0,21.241-4.599,28.686-13.795c7.445-9.197,14.958-23.28,22.554-42.263c-0.588,14.015-0.876,25.183-0.876,33.504
				c0,8.32,1.02,13.508,3.066,15.547c5.837,4.674,14.452,7.007,25.839,7.007c14.445,0,31.953-20.601,52.525-61.771
				c-0.272,6.767-0.411,12.913-0.411,18.414c0,21.315,1.382,33.872,4.16,37.663c2.771,3.791,12.112,5.693,28.029,5.693
				c13.664,0,29.971-18.109,48.916-54.29c2.556,36.188,14.491,54.29,35.823,54.29c12.844,0,25.25-8.902,37.226-26.715
				c6.713,17.813,17.662,26.715,32.846,26.715c15.178,0,27.735-7.226,37.664-21.679c9.922-14.452,17.224-32.477,21.897-54.087
				c14.345,0,27.196-3.262,38.568-9.76c-0.594,4.293-0.906,8.639-0.906,13.045c0,19.42,4.817,36.35,14.452,50.802
				c9.635,14.453,23.499,21.679,41.605,21.679c24.813,0,43.938-7.589,57.372-22.773c13.426-15.178,21.165-35.036,23.211-59.561
				c13.426-5.256,24.669-11.168,33.723-17.737c4.473-3.248,7.838-6.013,10.101-8.298c5.536,2.169,12.09,3.262,19.679,3.262
				c-4.968,16.642-7.445,36.644-7.445,59.999c0,23.361,1.02,36.063,3.065,38.102c5.837,4.674,14.453,7.007,25.84,7.007
				c13.816,0,30.436-18.839,49.859-56.511c1.205,17.876,5.378,31.325,12.544,40.307c8.608,10.806,19.119,16.204,31.532,16.204
				c12.406,0,22.698-5.398,30.875-16.204c8.171-10.798,16.204-26.715,24.088-47.736c-0.876,16.061-1.314,29.056-1.314,38.978
				c0,9.929,1.164,16.061,3.504,18.394c5.543,4.38,13.282,6.569,23.212,6.569c16.053,0,35.617-24.525,58.685-73.575
				c8.465-17.806,12.701-30.801,12.701-38.978C1122.12,384.959,1121.169,383.789,1119.273,383.789z M295.064,392.329
				c-0.438,5.693-0.808,9.71-1.095,12.044c-18.688,48.174-32.847,72.262-42.481,72.262c-7.883,0-14.233-5.256-19.051-15.767
				s-7.226-23.937-7.226-40.291c0-16.348,4.598-30.581,13.795-42.7c9.197-12.112,17.881-18.176,26.058-18.176
				c4.961,0,10.729,2.122,17.299,6.351c6.569,4.236,11.168,8.69,13.795,13.357C295.865,382.331,295.502,386.636,295.064,392.329z
				 M608.411,396.928c-9.053-8.465-13.576-17.662-13.576-27.591c0-9.923,1.314-14.891,3.941-14.891
				c6.713,0,10.073,11.976,10.073,35.912C608.849,393.28,608.698,395.47,608.411,396.928z M751.182,464.153
				c-7.008,10.661-16.793,15.985-29.343,15.985c-12.557,0-21.754-6.351-27.591-19.052c-5.844-12.7-8.759-26.058-8.759-40.072
				c0-29.192,6.275-48.756,18.832-58.686c-3.216,7.008-4.817,15.329-4.817,24.964s4.667,18.469,14.015,26.496
				c9.34,8.033,20.727,12.043,34.16,12.043l15.766-0.876C762.273,440.436,758.188,453.498,751.182,464.153z M758.626,408.752
				c-9.929,0-18.612-3.353-26.058-10.072c-7.445-6.713-11.168-15.473-11.168-26.277c0-4.961,1.314-9.56,3.942-13.795
				c2.627-4.229,6.275-6.351,10.949-6.351c9.34,0,16.129,5.844,20.364,17.518c4.229,11.682,6.638,24.676,7.227,38.978H758.626z
				 M1027.522,397.804c-16.937,52.554-31.971,78.831-45.108,78.831c-6.426,0-11.757-5.256-15.985-15.767
				c-4.236-10.511-6.351-24.012-6.351-40.51c0-16.492,3.941-31.02,11.824-43.576c7.884-12.551,15.767-18.832,23.649-18.832
				c14.302,0,25.688,3.798,34.16,11.387C1029.712,372.259,1028.98,381.75,1027.522,397.804z"/>
		</g>
	</g>
</g>
</svg>
